<svg width="17" height="16" viewBox="0 0 17 16" fill="none" xmlns="http://www.w3.org/2000/svg">
<g clip-path="url(#clip0_3366_6090)">
<mask id="path-1-inside-1_3366_6090" fill="white">
<path d="M16.4922 8.14946C16.4922 7.49394 16.4377 7.01559 16.3199 6.51953H8.65918V9.47819H13.1559C13.0652 10.2135 12.5757 11.3208 11.4877 12.0648L11.4725 12.1639L13.8947 13.9973L14.0625 14.0137C15.6037 12.6229 16.4922 10.5766 16.4922 8.14946Z"/>
</mask>
<path d="M16.4922 8.14946C16.4922 7.49394 16.4377 7.01559 16.3199 6.51953H8.65918V9.47819H13.1559C13.0652 10.2135 12.5757 11.3208 11.4877 12.0648L11.4725 12.1639L13.8947 13.9973L14.0625 14.0137C15.6037 12.6229 16.4922 10.5766 16.4922 8.14946Z" fill="#4285F4"/>
<path d="M16.3199 6.51953L16.5442 6.46628L16.5021 6.28906H16.3199V6.51953ZM8.65918 6.51953V6.28906H8.42871V6.51953H8.65918ZM8.65918 9.47819H8.42871V9.70866H8.65918V9.47819ZM13.1559 9.47819L13.3846 9.50638L13.4165 9.24772H13.1559V9.47819ZM11.4877 12.0648L11.3576 11.8746L11.2752 11.931L11.26 12.0297L11.4877 12.0648ZM11.4725 12.1639L11.2447 12.1288L11.2238 12.2647L11.3334 12.3476L11.4725 12.1639ZM13.8947 13.9973L13.7556 14.1811L13.8075 14.2204L13.8723 14.2267L13.8947 13.9973ZM14.0625 14.0137L14.0401 14.2431L14.1414 14.253L14.2169 14.1848L14.0625 14.0137ZM16.7226 8.14946C16.7226 7.47906 16.6668 6.98252 16.5442 6.46628L16.0957 6.57279C16.2087 7.04866 16.2617 7.50883 16.2617 8.14946H16.7226ZM16.3199 6.28906H8.65918V6.75H16.3199V6.28906ZM8.42871 6.51953V9.47819H8.88965V6.51953H8.42871ZM8.65918 9.70866H13.1559V9.24772H8.65918V9.70866ZM12.9271 9.45C12.8438 10.1258 12.386 11.1713 11.3576 11.8746L11.6178 12.255C12.7653 11.4703 13.2866 10.3011 13.3846 9.50638L12.9271 9.45ZM11.26 12.0297L11.2447 12.1288L11.7003 12.1989L11.7155 12.0999L11.26 12.0297ZM11.3334 12.3476L13.7556 14.1811L14.0338 13.8136L11.6116 11.9801L11.3334 12.3476ZM13.8723 14.2267L14.0401 14.2431L14.0849 13.7843L13.917 13.768L13.8723 14.2267ZM14.2169 14.1848C15.8117 12.7457 16.7226 10.6346 16.7226 8.14946H16.2617C16.2617 10.5187 15.3957 12.5002 13.9081 13.8426L14.2169 14.1848Z" fill="#306CCC" mask="url(#path-1-inside-1_3366_6090)"/>
<path d="M8.65918 15.9446C10.8622 15.9446 12.7116 15.2359 14.0625 14.0134L11.4877 12.0646C10.7987 12.534 9.87399 12.8618 8.65918 12.8618C6.50149 12.8618 4.67018 11.4711 4.01737 9.54883L3.92168 9.55677L1.40305 11.4613L1.37012 11.5508C2.71187 14.1551 5.46793 15.9446 8.65918 15.9446Z" fill="#34A853"/>
<path d="M4.01756 9.54887C3.84531 9.05281 3.74562 8.52127 3.74562 7.97208C3.74562 7.42283 3.84531 6.89135 4.0085 6.39529L4.00394 6.28964L1.45375 4.35449L1.37031 4.39327C0.817313 5.474 0.5 6.68762 0.5 7.97208C0.5 9.25654 0.817313 10.4701 1.37031 11.5508L4.01756 9.54887Z" fill="#FBBC05"/>
<path d="M8.65918 3.08269C10.1913 3.08269 11.2248 3.72934 11.8141 4.26974L14.1169 2.07286C12.7026 0.788397 10.8622 0 8.65918 0C5.46793 0 2.71187 1.78937 1.37012 4.39371L4.0083 6.39573C4.67018 4.47347 6.50149 3.08269 8.65918 3.08269Z" fill="#EB4335"/>
</g>
<defs>
<clipPath id="clip0_3366_6090">
<rect width="16" height="16" fill="white" transform="translate(0.5)"/>
</clipPath>
</defs>
</svg>
