<svg width="595" height="419" viewBox="0 0 595 419" fill="none" xmlns="http://www.w3.org/2000/svg">
<path fill-rule="evenodd" clip-rule="evenodd" d="M288.045 35.3017C341.733 26.7079 357.152 0.129652 451.967 0C514.446 16.1172 535.899 95.9894 528.651 155.55C521.786 211.962 476.554 256.735 438.609 299.329C395.596 347.611 413.946 408.682 294.453 418.407C216.3 406.664 177.293 403.443 132.622 310.033C112.956 244.579 95.1746 208.744 102.81 155.55C107.043 126.052 121.24 114.998 173.03 78.3852C238.847 49.8242 246.381 41.9707 288.045 35.3017Z" fill="#EBEEF3"/>
<mask id="mask0_3209_30398" style="mask-type:alpha" maskUnits="userSpaceOnUse" x="101" y="0" width="429" height="419">
<path fill-rule="evenodd" clip-rule="evenodd" d="M288.045 35.3017C341.733 26.7079 357.152 0.129652 451.967 0C514.446 16.1172 535.899 95.9894 528.651 155.55C521.786 211.962 476.554 256.735 438.609 299.329C395.596 347.611 413.946 408.682 294.453 418.407C216.3 406.664 177.293 403.443 132.622 310.033C112.956 244.579 95.1746 208.744 102.81 155.55C107.043 126.052 121.24 114.998 173.03 78.3852C238.847 49.8242 246.381 41.9707 288.045 35.3017Z" fill="#C4C4C4"/>
</mask>
<g mask="url(#mask0_3209_30398)">
<rect x="147.943" y="47.543" width="32.2641" height="73.2785" fill="#F3F3F3"/>
<rect x="181.411" y="47.543" width="32.2641" height="73.2785" fill="#F3F3F3"/>
<rect x="216.834" y="47.543" width="32.2641" height="73.2785" fill="#F3F3F3"/>
<rect x="250.303" y="47.543" width="32.2641" height="73.2785" fill="#F3F3F3"/>
<rect x="216.834" y="123.211" width="32.2641" height="73.2785" fill="#F3F3F3"/>
<rect x="250.303" y="123.211" width="32.2641" height="73.2785" fill="#F3F3F3"/>
<rect x="147.462" y="123.211" width="32.2641" height="73.2785" fill="#F3F3F3"/>
<rect x="180.929" y="123.211" width="32.2641" height="73.2785" fill="#F3F3F3"/>
<path d="M391.464 382.169C392.915 379.266 390.859 370.766 389.649 366.879C394.833 368.33 397.338 366.274 397.943 365.064C397.943 362.784 403.299 361.868 405.977 361.695C406.599 365.635 405.717 376.122 405.199 380.873C403.54 379.837 400.534 380.441 399.238 380.873C397.165 381.495 393.191 381.996 391.464 382.169Z" fill="#C69D85"/>
<path d="M407.873 359.104L406.755 374.653L361.661 368.952C363.112 367.293 361.92 365.151 361.143 364.287H371.25H374.36C374.775 364.701 375.915 365.151 376.433 365.323C378.921 363.25 385.59 363.423 388.614 363.768C389.858 363.768 393.106 362.559 394.574 361.954C395.196 360.71 398.289 360.399 399.758 360.399C400.172 359.57 405.341 359.19 407.873 359.104Z" fill="#263C52"/>
<path d="M354.664 301.31C354.871 295.09 356.478 286.624 357.256 283.168L382.135 282.132C381.768 287.078 382.624 290.556 383.056 290.729C384.3 299.851 378.853 318.155 377.211 325.153C377.004 330.129 373.237 331.459 370.732 334.483L367.363 331.373C362.802 328.885 356.997 310.294 354.664 301.31Z" fill="#C69D85"/>
<path d="M358.537 250.515C353.613 254.402 352.835 259.845 352.058 265.805C351.035 280.059 360.105 291.463 369.694 291.463C386.06 291.463 385.489 267.62 385.489 266.842V261.659C385.489 254.402 384.726 244.553 379.802 240.666C379.37 240.794 374.36 244.294 374.36 244.554C364.785 244.553 361.819 247.923 358.537 250.515Z" fill="#D4AA91"/>
<path d="M358.553 250.515C353.629 254.402 352.851 259.845 352.074 265.805V268.915L349.742 265.805C345.865 248.199 354.32 238.678 361.922 235.331C360.799 235.727 358.553 235.432 358.553 231.078C358.38 229.177 359.538 225.635 365.55 226.672C365.809 224.944 367.572 222.007 372.548 224.08C375.744 225.853 380.634 230.499 374.621 234.903C390.382 239.784 392.627 261.559 385.506 266.842V261.659C385.506 254.402 380.15 248.442 376.694 245.85C379.286 242.481 379.027 239.111 378.768 240.926C378.56 242.377 375.917 244.468 374.621 245.331C369.645 243.258 361.836 247.923 358.553 250.515Z" fill="#1D1C1C"/>
<path fill-rule="evenodd" clip-rule="evenodd" d="M367.417 224.169C366.403 224.809 365.927 225.898 365.805 226.71L365.766 226.972L365.505 226.927C362.548 226.417 360.851 227.042 359.911 227.958C358.963 228.883 358.728 230.158 358.809 231.054L358.81 231.065V231.077C358.81 233.218 359.363 234.286 359.978 234.784C360.588 235.278 361.324 235.263 361.825 235.089C364.004 234.131 366.123 233.669 367.881 233.669C370.329 233.669 372.556 234.006 374.57 234.616C375.977 233.563 376.726 232.515 377.034 231.525C377.349 230.515 377.214 229.531 376.8 228.61C375.965 226.756 374.009 225.19 372.433 224.313C370.003 223.304 368.417 223.538 367.417 224.169ZM375.17 234.808C376.457 233.78 377.203 232.727 377.529 231.679C377.889 230.525 377.728 229.41 377.272 228.398C376.369 226.39 374.29 224.751 372.672 223.853L372.659 223.846L372.646 223.84C370.107 222.783 368.328 222.981 367.14 223.731C366.072 224.405 365.533 225.494 365.34 226.375C362.432 225.924 360.618 226.546 359.55 227.587C358.464 228.645 358.204 230.084 358.292 231.089C358.294 233.295 358.864 234.548 359.652 235.186C359.965 235.44 360.302 235.588 360.633 235.661C357.153 237.471 353.639 240.56 351.295 245.102C348.685 250.162 347.537 257.007 349.487 265.86L349.499 265.915L352.331 269.692V265.821C353.11 259.854 353.886 254.527 358.712 250.717C360.339 249.433 363.091 247.633 366.049 246.413C369.021 245.187 372.132 244.575 374.52 245.57L374.648 245.623L374.763 245.546C375.421 245.108 376.418 244.36 377.28 243.535C377.62 243.21 377.943 242.869 378.216 242.528C377.89 243.448 377.35 244.569 376.487 245.691L376.327 245.899L376.537 246.057C379.966 248.628 385.245 254.522 385.245 261.658V267.356L385.658 267.05C387.51 265.675 388.727 263.253 389.278 260.357C389.831 257.456 389.723 254.049 388.894 250.66C387.271 244.019 382.867 237.399 375.17 234.808ZM367.881 234.187C366.206 234.187 364.154 234.63 362.025 235.567C358.273 237.22 354.306 240.398 351.756 245.339C349.213 250.267 348.071 256.968 349.981 265.694L351.813 268.137V265.788L351.815 265.771C352.591 259.824 353.373 254.272 358.391 250.311C360.047 249.003 362.84 247.176 365.852 245.934C368.799 244.718 372.021 244.036 374.589 245.039C375.225 244.606 376.134 243.914 376.922 243.161C377.34 242.761 377.718 242.349 378.002 241.953C378.29 241.552 378.466 241.19 378.51 240.888C378.542 240.659 378.577 240.491 378.614 240.39C378.623 240.364 378.636 240.333 378.654 240.303C378.662 240.288 378.676 240.266 378.697 240.245C378.715 240.225 378.753 240.19 378.812 240.171C378.88 240.148 378.958 240.154 379.025 240.191C379.083 240.222 379.114 240.267 379.129 240.292C379.157 240.339 379.167 240.387 379.171 240.41C379.188 240.506 379.183 240.656 379.165 240.825C379.146 241.004 379.11 241.232 379.052 241.499C378.828 242.523 378.269 244.149 377.055 245.799C380.541 248.49 385.763 254.426 385.763 261.658V266.298C387.248 264.984 388.276 262.851 388.769 260.26C389.306 257.44 389.203 254.108 388.391 250.783C386.765 244.13 382.313 237.556 374.543 235.15C372.548 234.532 370.331 234.187 367.881 234.187Z" fill="#1D1C1C"/>
<path d="M389.133 261.917C387.267 260.88 385.851 263.99 385.246 266.064L384.728 275.134C386.179 275.756 387.146 274.357 387.578 273.32C391.103 266.685 390.084 262.954 389.133 261.917Z" fill="#C7997D"/>
<path d="M348.575 261.864C350.441 260.827 351.857 263.938 352.462 266.011L352.98 275.081C351.529 275.703 350.562 274.304 350.13 273.267C346.605 266.633 347.624 262.901 348.575 261.864Z" fill="#C7997D"/>
<path d="M383.65 288.093C386.553 294.934 381.79 316.687 378.508 326.708C376.002 328.781 371.044 333.239 371.251 334.482L368.659 365.064V375.171L406.756 375.948L412.458 295.349C411.836 287.678 402.35 287.315 397.686 288.093C393.954 288.715 386.415 288.352 383.65 288.093Z" fill="#30295A"/>
<path d="M337.82 290.425C341.138 291.255 350.087 290.771 354.148 290.425C353.975 301.224 355.599 323.598 363.477 326.708L371.252 333.187L370.216 367.765C377.601 367.238 384.68 365.494 388.357 364.286C389.698 364.918 390.657 366.82 391.329 369.21C392.425 373.102 392.763 378.287 392.763 381.391C392.555 383.257 383.174 382.86 378.509 382.428C377.472 382.428 370.648 383.56 367.365 384.126C359.279 384.863 348.1 384.433 343.522 384.126C339.869 384.541 336.369 383.437 334.451 382.428C333.043 382.662 331.643 381.823 330.318 380.354L320.716 379.318C320.716 377.245 322.789 368.865 322.789 364.286C316.983 361.384 317.26 323.684 318.124 305.198C317.709 290.685 331.082 289.302 337.82 290.425Z" fill="#272055"/>
<path d="M378.894 309.948C380.708 297.284 382.627 293.735 382.412 289.225L382.197 287.507C382.933 287.603 384.08 287.919 384.727 288.285C388.274 290.29 390.476 295.795 391.206 298.718C391.414 301.413 394.376 314.376 396.104 320.423C394.445 319.387 388.911 318.448 385.628 317.929L384.727 322.82C384.727 323.597 381.358 321.901 381.358 322.419C381.358 322.834 381.876 325.93 381.358 326.189H379.544C377.885 326.811 373.484 333.555 371.411 335.888L370.912 333.144C370.912 331.071 372.907 327.906 374.404 325.412C375.402 323.099 375.651 322.419 375.651 322.419C375.651 322.419 377.684 312.971 378.894 309.948Z" fill="#ECCE2F"/>
<path d="M345.076 302.606C346.735 292.654 352.852 289.043 356.221 288.611C355.875 291.462 356.116 297.361 356.945 300.471C357.723 304.531 360.566 312.695 362.432 313.939C365.283 318.259 369.853 329.041 371.512 334.224V335.52V335.893C369.042 332.235 362.345 329.66 359.072 328.781C358.243 328.367 357.172 328.609 356.74 328.781L356.945 324.914L351.957 326.41C351.18 325.892 352.474 320.175 351.957 320.175C351.543 320.175 348.705 321.007 346.891 321.266C345.439 321.888 342.229 322.669 340.483 323.168C339.985 320.923 343.435 308.308 345.076 302.606Z" fill="#ECCE2F"/>
<path d="M366.845 352.106C366.845 352.822 367.425 353.402 368.141 353.402C368.856 353.402 369.437 352.822 369.437 352.106C369.437 351.391 368.856 350.811 368.141 350.811C367.425 350.811 366.845 351.391 366.845 352.106Z" fill="#D9D9D9"/>
<path d="M366.845 340.702C366.845 341.418 367.425 341.998 368.141 341.998C368.856 341.998 369.437 341.418 369.437 340.702C369.437 339.986 368.856 339.406 368.141 339.406C367.425 339.406 366.845 339.986 366.845 340.702Z" fill="#D9D9D9"/>
<path d="M418.678 353.142C418.678 353.858 419.258 354.438 419.974 354.438C420.689 354.438 421.27 353.858 421.27 353.142C421.27 352.427 420.689 351.847 419.974 351.847C419.258 351.847 418.678 352.427 418.678 353.142Z" fill="#D9D9D9"/>
<path d="M343.267 362.472C342.231 361.695 338.17 361.09 336.01 360.917C334.974 360.658 334.456 359.708 334.974 359.103C335.514 358.474 340.848 359.161 343.785 359.708L342.231 358.067C330.044 357.289 329.273 356.512 329.273 355.475C329.013 353.661 338.602 354.179 344.174 354.568L342.748 353.143C329.267 353.661 328.288 352.365 328.495 351.328C329.013 348.737 338.861 349.255 343.785 349.774L342.748 348.478C333.678 347.959 333.073 347.095 333.678 346.404C333.47 343.709 341.539 344.936 345.599 345.886C346.636 346.301 351.387 357.807 353.633 363.509C355.499 365.582 360.285 366.101 362.445 366.101H388.102L375.662 369.729L358.039 367.396C355.879 366.705 350.99 365.323 348.709 365.323C345.858 365.323 344.303 363.25 343.267 362.472Z" fill="#C69D85"/>
<path d="M361.404 364.287C366.069 364.028 375.71 363.665 376.954 364.287C380.323 364.287 387.269 364.028 388.098 362.991C390.603 363.078 395.873 362.732 396.909 360.659C398.464 358.931 403.855 355.113 405.721 356.772C406.93 358.327 407.172 363.561 405.721 368.952C392.504 370.939 365.292 373.72 362.182 368.952L361.404 364.287Z" fill="#241E4D"/>
<path d="M292.854 413.575L313.301 374.544L534.68 374.544L552.146 405.066C554.315 408.856 551.579 413.575 547.212 413.575L292.854 413.575Z" fill="#4B4B4B"/>
<path d="M334.449 382.428C329.473 383.258 324.6 370.68 322.786 364.287H344.815C345.852 365.324 353.886 366.62 357.773 367.138C361.63 367.97 365.972 368.068 370.213 367.766C377.599 367.239 384.678 365.494 388.354 364.287C389.696 364.918 390.654 366.821 391.327 369.211C392.422 373.103 392.76 378.288 392.76 381.392C392.553 383.258 383.171 382.86 378.506 382.428C377.47 382.428 370.645 383.561 367.362 384.127C359.276 384.864 348.098 384.434 343.519 384.127C339.866 384.542 336.367 383.438 334.449 382.428Z" fill="#272053"/>
<path d="M396.391 367.397C394.94 368.019 391.899 367.656 390.689 367.397C392.348 372.166 392.676 378.714 392.504 381.392H397.428C398.257 380.77 402.87 380.873 404.684 380.873L405.462 362.473C401.73 361.644 397.6 365.41 396.391 367.397Z" fill="#C69D85"/>
<path d="M402.358 382.581L408.914 255.008C409.025 252.833 410.132 250.803 412.042 249.637C413.578 248.699 415.411 247.694 416.758 247.317C417.077 247.21 417.395 247.161 417.707 247.161H526.194V384.986H406.46L402.358 382.581Z" fill="black"/>
<path fill-rule="evenodd" clip-rule="evenodd" d="M416.389 247.312C416.722 247.197 417.055 247.145 417.381 247.145H493.834C493.905 247.145 493.972 247.173 494.021 247.225C494.07 247.276 494.096 247.345 494.093 247.416L488.132 378.033C488.126 378.163 488.025 378.268 487.896 378.28L406.578 385.347C406.523 385.352 406.468 385.339 406.421 385.31L402.474 382.908C402.393 382.858 402.345 382.768 402.35 382.673L408.659 255.23C408.77 252.982 409.873 250.873 411.79 249.658C413.265 248.723 415.053 247.702 416.389 247.312ZM414.635 248.608C413.784 249.043 412.886 249.576 412.067 250.096C410.308 251.211 409.281 253.157 409.177 255.256L402.875 382.545L406.316 384.64L411.679 263.466C411.68 257.867 412.25 254.055 413.113 251.534C413.551 250.255 414.069 249.298 414.635 248.608ZM406.828 384.805L487.625 377.783L493.563 247.663H417.381C417.153 247.663 416.873 247.712 416.547 247.806C415.53 248.163 414.441 249.259 413.603 251.702C412.766 254.147 412.198 257.896 412.198 263.472C412.198 263.476 412.198 263.479 412.198 263.483L406.828 384.805Z" fill="black"/>
<path fill-rule="evenodd" clip-rule="evenodd" d="M391.466 258.809C393.021 245.332 379.025 222.064 354.405 235.743C352.971 236.539 345.334 244.036 342.224 259.586C341.446 266.324 341.707 279.231 343.781 280.06C343.926 280.255 344.134 280.471 344.38 280.645C349.421 287.954 355.41 287.274 357.774 286.02C358.189 286.586 358.638 285.91 358.811 285.502C359.07 284.983 358.551 283.947 358.033 283.687C357.618 283.48 357.688 284.465 357.774 284.983C353.213 288.189 347.581 283.647 345.335 280.976C345.765 280.965 346.219 280.721 346.631 280.06C345.767 279.542 344.195 278.091 344.817 276.432C344.904 276.086 345.232 275.499 345.854 275.914C346.199 277.382 347.201 280.164 348.445 279.542L350 279.024C350.173 278.16 350.83 276.432 352.074 276.432C352.247 275.914 352.488 274.618 352.074 273.581L349.223 267.62C348.618 266.843 346.89 265.755 344.817 267.62C344.647 268.471 344.444 269.915 344.38 271.508C343.921 269.089 343.884 262.955 345.335 256.735C346.718 251.898 351.607 240.045 358.034 236.52C361.231 234.62 369.593 231.804 377.472 235.743C381.705 237.557 389.652 245.072 389.652 260.623L390.274 260.8C389.247 260.784 388.168 261.305 387.319 263.213C386.455 264.682 385.142 268.967 386.801 274.357C387.813 274.962 390.947 275.394 390.947 273.58C392.549 270.462 394.774 263.71 391.226 261.072L391.466 261.14V258.809Z" fill="black"/>
<path fill-rule="evenodd" clip-rule="evenodd" d="M370.777 231.939C366.089 231.477 360.65 232.571 354.532 235.97C354.212 236.147 353.489 236.739 352.527 237.793C351.571 238.839 350.394 240.325 349.163 242.271C346.703 246.161 344.03 251.89 342.482 259.627C342.096 262.979 341.967 267.87 342.193 272.025C342.307 274.106 342.508 275.992 342.808 277.405C342.958 278.113 343.131 278.691 343.324 279.111C343.522 279.545 343.717 279.756 343.878 279.82C343.922 279.838 343.961 279.867 343.989 279.905C344.121 280.081 344.31 280.277 344.53 280.433C344.555 280.451 344.577 280.473 344.594 280.498C349.561 287.698 355.405 286.984 357.654 285.791C357.768 285.731 357.908 285.763 357.984 285.867C358.062 285.972 358.108 285.977 358.113 285.978C358.122 285.978 358.157 285.977 358.222 285.925C358.358 285.816 358.492 285.592 358.573 285.401C358.575 285.398 358.576 285.394 358.578 285.391C358.578 285.389 358.579 285.388 358.58 285.386C358.615 285.317 358.632 285.21 358.615 285.066C358.599 284.924 358.551 284.764 358.479 284.605C358.348 284.318 358.16 284.081 357.992 283.964C357.985 283.997 357.979 284.038 357.975 284.085C357.954 284.339 357.989 284.69 358.031 284.941C358.047 285.039 358.006 285.138 357.924 285.196C355.538 286.873 352.881 286.508 350.577 285.418C348.275 284.329 346.278 282.498 345.138 281.143C345.074 281.067 345.059 280.96 345.1 280.87C345.141 280.779 345.231 280.72 345.33 280.717C345.608 280.71 345.936 280.575 346.269 280.134C345.843 279.84 345.331 279.384 344.953 278.818C344.503 278.144 344.228 277.283 344.571 276.355C344.623 276.156 344.746 275.87 344.973 275.687C345.095 275.588 345.251 275.516 345.438 275.512C345.623 275.509 345.812 275.573 345.999 275.698C346.054 275.735 346.092 275.791 346.107 275.855C346.277 276.577 346.607 277.614 347.04 278.385C347.258 278.774 347.488 279.07 347.716 279.234C347.931 279.387 348.124 279.414 348.331 279.311C348.342 279.305 348.353 279.3 348.365 279.296L349.78 278.825C349.885 278.379 350.093 277.78 350.418 277.266C350.744 276.749 351.224 276.267 351.879 276.185C351.945 275.938 352.014 275.583 352.037 275.186C352.065 274.692 352.023 274.154 351.838 273.686L349.003 267.759C348.727 267.414 348.204 267.005 347.527 266.885C346.865 266.767 346.016 266.919 345.056 267.757C344.892 268.604 344.701 269.991 344.64 271.519C344.635 271.65 344.531 271.757 344.4 271.767C344.269 271.776 344.151 271.686 344.126 271.557C343.659 269.095 343.627 262.923 345.084 256.677C345.085 256.674 345.086 256.671 345.086 256.669C345.087 256.667 345.087 256.666 345.087 256.664C345.784 254.228 347.359 250.037 349.567 246.011C351.769 241.997 354.627 238.096 357.907 236.295C361.148 234.371 369.6 231.522 377.582 235.508C381.904 237.365 389.846 244.925 389.912 260.427L390.347 260.551C390.472 260.587 390.551 260.71 390.532 260.839C390.513 260.967 390.402 261.062 390.272 261.06C389.807 261.053 389.337 261.165 388.884 261.495C388.426 261.827 387.969 262.392 387.557 263.319C387.553 263.328 387.549 263.337 387.544 263.345C386.722 264.743 385.429 268.909 387.02 274.182C387.504 274.435 388.424 274.656 389.243 274.617C389.675 274.597 390.045 274.505 390.3 274.336C390.54 274.177 390.69 273.944 390.69 273.58C390.69 273.539 390.699 273.498 390.718 273.462C391.51 271.921 392.454 269.482 392.762 267.113C393.072 264.73 392.729 262.512 391.073 261.28C390.972 261.206 390.94 261.07 390.995 260.958C391.037 260.873 391.119 260.82 391.209 260.814V258.809C391.209 258.803 391.209 258.798 391.209 258.792C391.209 258.788 391.21 258.784 391.21 258.779C391.978 252.127 388.901 243.022 382.579 237.285C379.423 234.422 375.465 232.402 370.777 231.939ZM391.727 261.148C393.313 262.589 393.572 264.904 393.276 267.18C392.962 269.598 392.011 272.065 391.207 273.645C391.188 274.155 390.951 274.527 390.586 274.768C390.222 275.01 389.745 275.112 389.267 275.135C388.316 275.18 387.227 274.913 386.669 274.58C386.614 274.547 386.573 274.495 386.555 274.434C384.879 268.988 386.189 264.637 387.09 263.095C387.525 262.12 388.03 261.475 388.579 261.076C388.847 260.881 389.122 260.747 389.397 260.663C389.395 260.65 389.394 260.636 389.394 260.623C389.394 245.165 381.498 237.75 377.371 235.982C377.366 235.98 377.362 235.978 377.357 235.975C369.587 232.091 361.322 234.868 358.168 236.743L358.16 236.748C355.016 238.472 352.216 242.259 350.022 246.26C347.835 250.248 346.275 254.399 345.588 256.801C344.547 261.265 344.278 265.678 344.378 268.684C344.439 268.252 344.504 267.874 344.564 267.57C344.575 267.515 344.604 267.466 344.645 267.428C345.732 266.45 346.761 266.222 347.617 266.374C348.46 266.524 349.095 267.033 349.429 267.462C349.44 267.476 349.45 267.492 349.458 267.509L352.309 273.47C352.31 273.472 352.311 273.474 352.312 273.476C352.313 273.479 352.314 273.482 352.316 273.485C352.542 274.052 352.586 274.676 352.554 275.216C352.523 275.758 352.415 276.234 352.321 276.514C352.286 276.62 352.187 276.692 352.075 276.692C351.587 276.692 351.18 277.03 350.856 277.543C350.536 278.049 350.338 278.665 350.256 279.075C350.238 279.166 350.172 279.24 350.084 279.27L348.545 279.783C348.137 279.979 347.745 279.891 347.415 279.655C347.095 279.426 346.819 279.052 346.588 278.639C346.144 277.847 345.811 276.821 345.629 276.081C345.548 276.04 345.489 276.03 345.448 276.031C345.396 276.032 345.348 276.05 345.299 276.09C345.19 276.178 345.106 276.349 345.07 276.495C345.068 276.505 345.065 276.514 345.061 276.523C344.789 277.249 344.989 277.938 345.384 278.53C345.781 279.126 346.359 279.594 346.766 279.838C346.826 279.874 346.868 279.932 346.885 280C346.901 280.068 346.889 280.139 346.852 280.198C346.541 280.696 346.19 280.999 345.822 281.14C346.96 282.41 348.763 283.987 350.798 284.95C352.967 285.976 355.354 286.288 357.495 284.861C357.461 284.61 357.437 284.299 357.459 284.042C357.471 283.894 357.502 283.712 357.595 283.58C357.648 283.506 357.73 283.434 357.846 283.409C357.959 283.385 358.065 283.413 358.15 283.456C358.485 283.623 358.777 284.008 358.951 284.39C359.04 284.587 359.106 284.8 359.13 285.006C359.153 285.207 359.139 285.422 359.048 285.61C358.955 285.827 358.78 286.141 358.547 286.329C358.426 286.426 358.26 286.512 358.063 286.493C357.933 286.481 357.818 286.425 357.718 286.34C355.137 287.588 349.186 288.037 344.193 280.829C343.962 280.659 343.764 280.458 343.616 280.27C343.293 280.108 343.048 279.754 342.852 279.327C342.637 278.857 342.455 278.237 342.301 277.513C341.993 276.062 341.79 274.145 341.676 272.053C341.448 267.868 341.577 262.942 341.968 259.557C341.969 259.55 341.97 259.543 341.971 259.536C343.533 251.728 346.232 245.937 348.725 241.994C349.972 240.023 351.167 238.513 352.144 237.443C353.114 236.382 353.883 235.737 354.28 235.517C360.472 232.076 366.016 230.949 370.828 231.424C375.64 231.898 379.7 233.973 382.927 236.901C389.365 242.743 392.508 252.002 391.727 258.824V261.141C391.727 261.143 391.727 261.145 391.727 261.148Z" fill="black"/>
<path d="M271.215 279.281C270.178 277.208 270.092 268.915 270.178 265.027L267.327 265.805L247.89 287.056L238.819 298.978L244.003 305.197H251.259L252.296 312.195L259.293 309.085V302.347L273.806 282.132L271.215 279.281Z" fill="#A77F6E"/>
<path d="M274.843 274.098L270.696 273.32L275.361 273.839C277.227 273.631 277.348 276.517 277.175 277.985L278.989 278.763L279.767 280.836L281.581 283.428C282.41 284.05 284.691 285.415 285.727 286.019C294.021 285.242 303.61 298.459 304.646 298.718C305.476 298.926 310.002 307.443 312.162 311.676C314.443 313.128 314.149 318.501 313.717 321.006L306.72 354.179L285.727 350.81L274.843 354.179L248.667 358.325L248.667 356.511V348.218C248.252 343.657 249.619 321.179 250.223 315.823C249.601 313.335 250.827 311.331 252.813 309.085L256.701 305.456C257.531 303.383 257.047 301.655 256.701 301.051C255.872 300.014 256.356 296.99 256.701 295.608C258.775 295.401 263.094 290.511 264.994 288.093C264.994 286.641 270.178 281.441 272.769 279.022L274.843 274.098Z" fill="#033C25"/>
<path d="M261.628 302.346L256.703 305.456C257.532 303.59 256.962 301.396 256.444 300.273C255.925 299.496 256.444 295.351 257.221 296.126L256.703 295.608C259.605 294.986 263.441 290.166 264.996 287.833C265.536 286.393 269.241 282.505 271.734 280.035L270.957 279.54L270.179 273.32L274.844 273.839H275.362C277.436 274.046 277.436 276.689 277.177 277.985C277.177 278.193 278.04 278.417 278.472 278.504C279.302 278.504 279.509 279.54 279.509 280.059C279.509 280.266 280.891 282.391 281.582 283.428L281.324 283.687L269.921 302.346C269.506 303.383 265.601 300.36 263.701 298.718L261.628 302.346Z" fill="#054229"/>
<path d="M261.626 302.347L256.701 305.457C257.531 303.591 256.96 301.397 256.442 300.274C255.924 299.496 256.442 295.352 257.22 296.127C257.22 296.127 257.22 296.127 257.22 296.127C257.998 296.905 260.33 295.609 260.849 295.35C261.263 295.142 262.922 297.509 263.699 298.719L261.626 302.347Z" fill="#03321F"/>
<path d="M233.378 252.588C232.963 246.161 236.401 240.235 238.042 239.112L241.411 237.557L249.186 236.78C253.54 235.328 259.639 240.494 262.144 243.259C267.12 244.917 267.846 258.463 267.586 265.028L266.031 273.062C265.202 277.001 259.639 282.997 256.961 285.502C245.765 291.929 241.065 287.489 240.115 284.465C239.908 280.733 237.61 276.518 236.487 274.876C232.962 271.559 232.946 266.238 233.378 263.992C233.378 259.223 233.148 256.797 233.148 256.797C233.363 254.649 233.363 254.219 233.378 253.107V252.588Z" fill="#B08978"/>
<path d="M265.253 262.955C265.667 263.369 265.425 265.546 265.253 266.583C267.119 268.864 268.449 267.188 268.881 266.065L269.658 267.101C270.28 265.857 271.473 259.499 271.991 256.476C270.747 254.61 267.672 255.698 266.289 256.476C264.216 257.253 264.734 262.436 265.253 262.955Z" fill="#A77F6E"/>
<path d="M251.259 313.488V313.49L249.185 357.03H239.596C236.314 346.663 229.904 325.049 230.526 321.524V318.933C228.884 317.81 225.55 315.149 225.343 313.49C228.625 304.679 237.834 287.315 248.408 288.352L249.963 287.574L250.222 287.833C249.618 288.265 248.512 289.648 248.927 291.721C249.704 293.449 251.259 297.215 251.259 298.459C251.259 299.703 251.259 299.15 251.259 298.718C252.728 300.187 255.043 304.161 252.555 308.307C252.123 308.739 251.259 310.379 251.259 313.488Z" fill="#0A3F29"/>
<path d="M244.521 297.163C244.314 295.297 248.063 289.993 249.963 287.574L250.223 287.833C249.618 288.265 248.512 289.648 248.927 291.721C249.704 293.449 251.259 297.215 251.259 298.459C251.259 299.703 251.259 299.15 251.259 298.718C252.728 300.187 255.043 304.161 252.555 308.307C251.726 309.136 251.518 311.072 251.518 311.935C251.104 311.106 251.173 310.035 251.259 309.603C254.784 304.42 252.728 302.778 251.259 302.606C246.076 305.301 244.607 300.1 244.521 297.163Z" fill="#0E4931"/>
<path d="M238.303 240.474C236.316 241.079 235.363 242.918 234.672 244.3C233.119 229.786 245.732 229.182 252.816 229.009C276.399 229.005 275.965 246.2 275.102 255.962C275.102 252.023 272.478 251.93 271.096 251.844C269.789 252.567 267.87 255.122 267.611 256.418C265.123 256.418 264.389 258.726 264.476 260.109C264.269 261.975 265.081 265.724 265.513 267.365V270.734C265.305 275.503 261.452 280.842 259.552 282.915C254.783 289.549 246.853 289.48 243.484 288.616C239.337 286.025 239.596 282.656 239.337 280.842C239.13 279.39 237.523 276.436 236.746 275.14L235.969 272.544L237.524 270.47L240.892 270.734L242.967 268.915C246.284 269.123 250.223 269.175 251.778 269.434C251.865 270.038 252.399 273.17 252.814 273.585C253.228 274 254.887 272.894 255.664 272.289C258.36 271.667 260.934 265.119 261.884 261.923C262.506 260.057 262.143 254.234 261.884 251.556L256.183 248.705L257.738 245.077C257.945 243.833 255.751 242.14 254.628 241.449C246.957 239.168 240.29 239.87 238.303 240.474Z" fill="black"/>
<path d="M242.706 302.347C241.67 301.725 243.398 298.2 244.521 296.646C243.899 297.889 245.557 301.397 246.335 302.865C245.557 302.952 243.743 302.969 242.706 302.347Z" fill="#03321F"/>
<path d="M276.846 260.719C276.714 261.352 276.563 261.888 276.396 262.338C274.792 267.695 271.455 273.197 267.585 262.696C266.808 258.635 266.964 250.567 273.805 250.774C272.855 244.986 268.311 232.996 257.737 231.337L247.63 229.264C250.394 229.264 256.545 229.471 259.033 230.3C264.503 230.544 275.158 236.062 276.549 255.698C278.435 255.957 281.617 257.098 279.248 259.586C277.952 264.769 273.702 275.913 267.067 279.023C266.635 279.887 265.46 281.407 264.216 280.578C263.957 279.887 263.853 278.453 265.512 278.245C266.376 277.9 268.259 276.898 268.881 275.654C270.922 273.783 275.325 268.211 276.846 260.719Z" fill="#D00D0D"/>
<path d="M272.251 263.214C270.8 256.994 273.547 254.402 275.102 253.884L276.698 259.585L276.916 260.363C275.879 265.961 273.374 264.596 272.251 263.214Z" fill="#9B0F28"/>
<path d="M240.115 278.505L238.819 274.358C240.478 274.98 246.249 273.84 249.445 273.062V274.099C245.298 277.727 242.448 277.987 240.115 278.505Z" fill="white"/>
<path d="M295.216 413.575L313.301 374.606C306.303 374.866 292.199 373.989 290.541 372.537L258.406 369.911C247.867 368.183 236.118 365.765 231.453 365.765C225.606 365.765 76.862 372.244 50.1683 365.765L23.117 401.14C20.2758 404.855 22.8864 410.221 27.5633 410.278L295.216 413.575Z" fill="#4B4B4B"/>
<path d="M205.137 377.244L166.263 362.472L184.145 356.771L186.218 355.993L233.386 370.765L205.137 377.244Z" fill="white"/>
<path fill-rule="evenodd" clip-rule="evenodd" d="M239.72 354.799C240.832 355.974 240.902 357.423 240.623 358.398C240.618 358.417 240.61 358.436 240.6 358.453C240.549 358.545 240.496 358.635 240.44 358.724C239.32 360.513 237.267 361.767 236.337 362.19C236.322 362.213 236.302 362.25 236.276 362.306C236.211 362.447 236.135 362.661 236.049 362.939C235.878 363.491 235.682 364.262 235.482 365.124C235.081 366.847 234.667 368.916 234.409 370.296C234.394 370.376 234.342 370.444 234.27 370.48C234.168 370.531 234.037 370.548 233.922 370.555C233.796 370.562 233.648 370.56 233.486 370.55C233.161 370.531 232.761 370.483 232.341 370.421C231.5 370.296 230.561 370.114 229.953 369.984C229.944 369.982 229.934 369.979 229.925 369.976C229.49 369.831 229.261 369.398 229.139 369.019C229.012 368.624 228.971 368.195 228.971 367.916C228.971 367.773 229.087 367.657 229.23 367.657H230.064L230.788 362.949C230.981 361.793 230.882 360.151 230.798 359.381C229.928 358.588 229.441 357.834 229.26 357.122C229.072 356.381 229.223 355.715 229.567 355.144C230.242 354.026 231.661 353.27 232.776 352.898C232.8 352.89 232.825 352.885 232.851 352.885C236.514 352.78 238.611 353.628 239.72 354.799ZM231.361 359.857C231.427 360.734 231.465 362.038 231.3 363.033L230.301 369.527C230.892 369.65 231.693 369.801 232.417 369.908C232.83 369.969 233.214 370.015 233.517 370.033C233.668 370.042 233.794 370.043 233.891 370.038C233.905 370.037 233.918 370.036 233.93 370.035C234.191 368.654 234.59 366.671 234.977 365.007C235.178 364.141 235.378 363.356 235.554 362.786C235.641 362.502 235.726 362.262 235.805 362.09C235.844 362.005 235.887 361.925 235.935 361.861C235.959 361.83 235.991 361.793 236.033 361.762C236.06 361.742 236.1 361.719 236.148 361.706C236.47 361.558 236.923 361.31 237.419 360.976C236.882 361.131 236.334 361.199 235.796 361.204C234.165 361.217 232.621 360.642 231.692 360.106C231.684 360.102 231.675 360.096 231.667 360.09C231.562 360.012 231.459 359.934 231.361 359.857ZM240.004 358.444C240.048 358.373 240.091 358.3 240.133 358.227C240.363 357.389 240.293 356.159 239.343 355.156C238.383 354.141 236.473 353.306 232.904 353.402C231.835 353.764 230.583 354.465 230.011 355.412C229.728 355.88 229.613 356.405 229.762 356.994C229.914 357.592 230.345 358.284 231.216 359.06C231.437 359.257 231.685 359.459 231.964 359.665C232.834 360.164 234.281 360.698 235.792 360.685C237.297 360.673 238.859 360.121 240.004 358.444ZM229.818 369.258L229.984 368.175H229.501C229.519 368.386 229.559 368.633 229.632 368.86C229.684 369.022 229.747 369.156 229.818 369.258Z" fill="black"/>
<path d="M227.415 354.697C227.415 356.148 225.86 357.202 225.083 357.548L209.274 352.106C206.941 351.069 192.947 356.252 192.428 356.771C191.91 358.758 190.718 362.524 190.096 361.695C189.474 360.865 185.517 361.349 183.617 361.695C181.958 366.049 179.816 364.891 178.952 363.768C179.159 361.073 180.42 357.98 181.025 356.771L177.915 362.731C177.964 362.436 178.024 361.739 178.029 360.658L176.101 356.771C175.894 354.697 178.615 354.006 180.002 353.92C181.194 353.022 182.639 352.403 183.617 352.106C185.863 351.305 190.614 349.717 191.651 349.773C196.005 350.188 201.931 348.737 204.35 347.959C205.594 346.715 208.151 346.75 209.274 346.922L209.792 344.59C218.085 335.001 227.415 346.663 227.415 354.697Z" fill="#AE8370"/>
<path d="M226.12 322.044C226.742 320.8 227.07 316.342 227.156 314.269C227.571 313.647 230.612 317.465 232.081 319.452C230.629 320.489 235.104 337.334 237.523 345.627C237.523 347.079 235.45 350.033 234.413 351.329C231.925 356.512 227.329 357.635 225.342 357.549L226.12 355.994C226.949 347.079 220.245 343.122 216.79 342.258C212.748 341.45 210.019 344.188 209.084 345.767C209.062 345.722 209.039 345.676 209.015 345.627C208.185 343.969 214.889 338.716 218.345 336.298C217.723 333.188 221.714 329.646 223.787 328.264C223.787 326.398 225.342 323.34 226.12 322.044Z" fill="#13422E"/>
<path d="M62.4102 240.044L162.108 232.633C165.736 231.941 170.66 232.632 171.438 241.962L186.21 372.58L184.931 373.886H66.2759L62.4102 240.044Z" fill="black"/>
<path fill-rule="evenodd" clip-rule="evenodd" d="M163.724 232.702C163.89 232.777 164.056 232.867 164.221 232.974C164.929 233.435 165.612 234.203 166.257 235.428C167.544 237.869 168.714 242.185 169.622 249.706L185.122 373.321L185.939 372.487L171.179 241.984C170.794 237.358 169.386 234.943 167.693 233.752C166.476 232.896 165.077 232.649 163.724 232.702ZM184.628 373.545L169.107 249.769C168.201 242.258 167.039 238.022 165.798 235.669C165.18 234.497 164.551 233.807 163.939 233.409C163.339 233.019 162.736 232.896 162.135 232.892L106.647 244.764V354.495L184.628 373.545ZM171.696 241.937C171.303 237.236 169.86 234.642 167.991 233.328C166.125 232.016 163.902 232.027 162.059 232.378L106.334 244.301C106.214 244.326 106.129 244.432 106.129 244.554V354.698C106.129 354.818 106.211 354.922 106.327 354.95L184.87 374.138C184.959 374.16 185.053 374.133 185.117 374.068L186.395 372.761C186.45 372.706 186.476 372.629 186.467 372.551L171.696 241.941C171.696 241.94 171.696 241.939 171.696 241.937Z" fill="black"/>
<path d="M283.395 373.098C284.639 367.707 279.421 356.857 276.138 351.587C275.516 351.587 267.932 353.315 264.735 354.697C262.937 355.475 257.565 356.425 254.369 356.512C252.554 357.03 242.447 355.734 241.67 355.734H228.193C227.415 356.771 215.753 353.92 214.198 353.142C212.643 352.365 205.906 350.551 204.869 350.551C204.039 350.551 201.413 351.933 200.204 352.624L195.539 353.142C193.673 352.728 190.097 357.462 188.542 359.881C187.92 359.881 188.283 365.409 188.542 368.174C190.2 368.796 190.874 363.768 191.652 360.917H192.688C192.066 360.917 191.047 364.718 190.874 366.619C192.533 368.07 194.675 364.632 195.539 362.731C196.783 362.109 199.52 359.806 200.734 358.731L200.981 359.103C202.225 360.347 204.782 360.578 205.906 360.538C203.172 360.868 202.759 361.472 202.536 361.695C202.329 361.902 198.476 364.546 196.576 365.841C195.539 366.671 195.107 367.742 195.021 368.174C195.643 369.418 197.18 368.692 197.872 368.174C198.493 368.174 201.759 366.273 203.314 365.323C204.765 364.286 207.547 364.2 208.756 364.286C209.171 365.53 213.076 366.36 214.976 366.619C218.293 369.314 225.688 368.779 228.971 368.174H235.709C241.307 375.638 269.832 374.566 283.395 373.098Z" fill="#A77F6E"/>
<path d="M230.007 369.729C229.385 369.521 229.229 368.433 229.229 367.915H230.286L231.044 362.991C231.251 361.747 231.13 359.98 231.044 359.253C227.469 356.067 230.666 353.873 232.858 353.142C240.114 352.935 240.892 356.512 240.373 358.326C240.325 358.413 240.274 358.5 240.22 358.585C239.137 360.315 237.133 361.542 236.227 361.954C235.812 361.954 234.672 367.483 234.154 370.247C233.739 370.454 231.216 369.988 230.007 369.729Z" fill="black"/>
<path d="M301.29 300.792C294.033 298.926 285.481 314.7 282.112 322.82C279.693 328.027 275.581 340.663 278.483 349.55C276.23 350.334 267.052 353.082 266.039 353.661C264.795 355.32 269.141 354.957 273.026 364.287L272.249 370.247L270.693 374.135C270.693 375.379 287.122 373.876 289.627 373.616C290.042 374.653 301.564 374.285 307.093 374.544C308.752 370.19 307.423 357.98 306.732 351.847C309.013 347.493 312.52 326.881 313.989 317.119C310.464 301.569 304.054 299.755 301.29 300.792Z" fill="#164331"/>
<path d="M263.635 374.62L265.121 370.904L265.865 365.206C263.88 360.44 261.77 358.32 260.416 357.137C258.831 356.628 258.435 354.707 258.435 353.81L263.142 352.323H267.601C269.253 354.388 273.497 359.012 273.299 361.985C273.877 364.958 273.448 371.251 272.06 374.62C269.912 375.033 264.029 376.206 263.635 374.62Z" fill="#153D2C"/>
<g clip-path="url(#clip0_3209_30398)">
<rect x="396.076" y="160.498" width="41.4037" height="41.4037" rx="20.7019" fill="white"/>
<path d="M408.515 178.334L410.254 180.666L425.951 178.78C427.159 176.954 427.065 171.683 425.951 170.293C421.466 164.702 412.68 164.935 408.744 170.293C406.913 173.32 407.554 176.796 408.515 178.334Z" fill="black"/>
<path d="M407.706 181.203C407.963 182.413 409.188 182.501 409.768 182.395L410.455 178.958C407.853 178.078 407.538 180.088 407.706 181.203Z" fill="#DF9587"/>
<path d="M427.188 180.668C427.188 178.652 425.294 178.606 424.347 178.835L425.171 182.455C426.858 182.235 427.218 181.172 427.188 180.668Z" fill="#DF9587"/>
<path d="M414.129 192.442L414.862 188.817L420.406 188.639L420.91 192.745C418.564 194.602 415.137 193.216 414.129 192.442Z" fill="#DF9587"/>
<path d="M418.758 189.097C426.822 187.677 425.448 181.399 424.806 176.771L423.34 175.168V172.006C421.416 172.602 415.954 172.959 411.152 172.006L411.518 175.168L409.96 176.771C409.53 178.085 409.441 179.612 409.41 180.345C408.787 188.373 415.917 188.868 418.758 189.097Z" fill="#F3B09A"/>
<path d="M409.181 180.528C408.31 187.722 414.909 189.983 418.162 189.693C425.713 189.473 425.921 182.361 425.081 178.833C425.008 183.782 422.82 186.119 421.324 186.668C421.461 183.186 415.962 184.148 415.413 184.606C414.405 185.446 414.359 185.889 414.359 186.668L413.213 185.798C410.372 183.965 409.685 179.978 409.547 178.787L409.181 180.528Z" fill="black"/>
<path d="M420.682 190.884C418.409 194.623 415.611 192.442 414.496 190.884C409.291 191.434 406.095 198.169 405.148 201.469C412.92 205.794 424.729 203.271 429.663 201.469C428.013 193.734 422.988 191.189 420.682 190.884Z" fill="#DFC226"/>
<path d="M415.503 186.943C414.541 184.743 420.681 183.918 420.314 186.943C419.719 187.309 417.299 187.822 415.503 186.943Z" fill="#FAC2B0"/>
</g>
<circle cx="393.851" cy="215.858" r="3.86578" fill="white"/>
<circle cx="386.159" cy="225.494" r="1.73345" fill="white"/>
<circle cx="217.22" cy="223.61" r="3.86578" fill="white"/>
<circle cx="225.592" cy="230.322" r="1.71812" fill="white"/>
<g clip-path="url(#clip1_3209_30398)">
<rect x="171.826" y="188.183" width="41.4037" height="41.4037" rx="20.7019" fill="white"/>
<path d="M200.101 216.294C200.704 214.333 198.216 213.466 196.896 213.277H196.519C194.106 216.596 195.765 217.928 196.896 218.179C199.309 219.084 200.038 217.299 200.101 216.294Z" fill="black"/>
<path fill-rule="evenodd" clip-rule="evenodd" d="M196.366 213.167C196.401 213.118 196.458 213.089 196.518 213.089H196.895C196.904 213.089 196.913 213.09 196.922 213.091C197.598 213.187 198.581 213.458 199.325 213.965C199.699 214.22 200.022 214.542 200.21 214.942C200.398 215.341 200.443 215.804 200.287 216.328C200.249 216.857 200.04 217.595 199.508 218.091C198.953 218.608 198.091 218.826 196.841 218.361C196.238 218.223 195.478 217.795 195.198 216.937C194.916 216.073 195.145 214.845 196.366 213.167ZM196.615 213.466C195.474 215.063 195.333 216.137 195.557 216.82C195.784 217.515 196.41 217.879 196.936 217.995C196.945 217.997 196.953 218 196.961 218.003C198.119 218.437 198.824 218.214 199.251 217.815C199.695 217.401 199.882 216.757 199.912 216.282C199.913 216.267 199.916 216.253 199.92 216.239C200.058 215.791 200.017 215.417 199.869 215.102C199.719 214.782 199.451 214.508 199.113 214.277C198.438 213.817 197.525 213.56 196.882 213.466H196.615Z" fill="black"/>
<path d="M195.719 216.298H190.773V218.295L189.061 218.723C188.072 224.011 191.534 226.221 193.389 226.665C196.28 226.931 197.478 221.862 197.716 219.294L196.194 218.723C195.662 218.305 195.655 216.932 195.719 216.298Z" fill="#DF9587"/>
<path d="M193.69 221.385C191.051 221.762 190.218 219.548 190.107 218.248C184.21 219.009 180.485 225.746 180.976 228.33C187.976 233.048 202.36 230.819 205.515 228.853C205.629 222.347 198.572 218.724 196.574 218.676C196.27 221.758 194.648 221.249 193.69 221.385Z" fill="#3F25BA"/>
<path d="M201.609 207.433C200.855 206.829 200.289 207.433 200.101 207.81L199.535 211.203C202.25 210.902 202.049 208.564 201.609 207.433Z" fill="#DF9587"/>
<path d="M184.714 207.313C185.468 206.709 186.034 207.313 186.222 207.69L186.788 211.083C184.073 210.782 184.274 208.444 184.714 207.313Z" fill="#DF9587"/>
<path d="M200.237 210.068C200.203 210.065 200.17 210.062 200.137 210.059C200.093 213.698 198.46 216.98 193.959 217.915C190.473 217.915 186.579 215.292 185.996 209.061C183.82 200.467 189.57 197.687 192.533 197.56C201.207 197.104 201.283 205.708 200.237 210.068Z" fill="#F3B09A"/>
<path d="M193.502 199.892C191.972 202.755 186.618 207.256 185.584 206.868C183.848 200.9 187.279 197.776 190.097 196.659C191.008 196.298 191.909 196.124 192.642 196.096C194.06 196.029 195.969 196.344 196.963 196.659C202.082 198.281 201.61 203.663 200.855 207.057C200.29 209.603 194.523 201.602 193.502 199.892Z" fill="black"/>
<path fill-rule="evenodd" clip-rule="evenodd" d="M192.64 196.048C194.064 195.981 195.979 196.297 196.977 196.613C199.555 197.43 200.727 199.197 201.158 201.183C201.588 203.166 201.279 205.368 200.901 207.067C200.865 207.231 200.807 207.358 200.726 207.446C200.644 207.536 200.541 207.585 200.423 207.597C200.192 207.62 199.904 207.502 199.585 207.291C198.943 206.869 198.133 206.049 197.313 205.101C195.715 203.254 194.063 200.902 193.504 199.988C192.716 201.416 191.02 203.223 189.388 204.635C188.557 205.353 187.741 205.971 187.067 206.385C186.73 206.592 186.427 206.749 186.174 206.842C186.048 206.888 185.933 206.919 185.832 206.932C185.731 206.945 185.641 206.941 185.567 206.913C185.553 206.907 185.542 206.896 185.538 206.881C184.667 203.886 185.091 201.599 186.092 199.92C187.091 198.242 188.663 197.176 190.079 196.614C190.995 196.251 191.902 196.077 192.64 196.048ZM196.948 196.704C195.959 196.39 194.055 196.076 192.644 196.143L192.643 196.143C191.917 196.171 191.02 196.343 190.114 196.703C188.712 197.258 187.16 198.313 186.173 199.968C185.191 201.618 184.767 203.87 185.622 206.831C185.674 206.845 185.74 206.848 185.82 206.838C185.912 206.826 186.019 206.797 186.141 206.752C186.386 206.662 186.682 206.509 187.017 206.304C187.685 205.893 188.497 205.279 189.325 204.563C190.983 203.129 192.699 201.293 193.46 199.87C193.468 199.855 193.484 199.845 193.501 199.845C193.518 199.844 193.534 199.853 193.543 199.868C194.052 200.72 195.747 203.146 197.385 205.039C198.205 205.987 199.007 206.797 199.637 207.212C199.954 207.42 200.217 207.522 200.414 207.503C200.51 207.493 200.59 207.454 200.655 207.382C200.721 207.31 200.774 207.2 200.809 207.046C201.185 205.351 201.49 203.166 201.065 201.203C200.641 199.245 199.489 197.509 196.948 196.704Z" fill="black"/>
</g>
<g opacity="0.8">
<path d="M505.413 71.9949C505.858 64.5711 491.887 65.1897 484.847 66.427V99.8343H402.023V110.97H505.413V107.258V71.9949Z" fill="#C2CBCF" fill-opacity="0.4"/>
<path d="M397.883 92.9562C397.883 95.8589 397.303 103.988 399.044 103.988H490.771V71.4764C490.771 69.6186 495.415 69.7347 497.157 65.6709L496.997 65.6709C476.44 65.6714 400.203 65.6731 399.044 66.2521C396.722 67.412 397.883 83.0868 397.883 92.9562Z" fill="white"/>
<path d="M403.107 90.0547H481.482" stroke="#B2B4B6" stroke-opacity="0.5" stroke-width="1.1611"/>
<path d="M403.688 97.6016H482.062" stroke="#B2B4B6" stroke-opacity="0.5" stroke-width="1.1611"/>
<path d="M405.43 75.54H410.074" stroke="#B2B4B6" stroke-opacity="0.5" stroke-width="1.1611"/>
<path d="M413.558 75.54H418.783" stroke="#B2B4B6" stroke-opacity="0.5" stroke-width="1.1611"/>
</g>
<path d="M345.078 55.708H322.787L319.207 83.0436H348.007L345.078 55.708Z" fill="url(#paint0_linear_3209_30398)"/>
<path d="M321.647 61.7455C320.606 46.2553 329.457 42.9251 334.013 43.1963C345.338 43.1963 345.728 55.3997 345.728 61.7455H321.647Z" fill="#C9C9C9"/>
<path d="M334.014 11.6484L333.775 46.9985" stroke="#C9C9C9" stroke-width="1.95254"/>
</g>
<rect x="461" y="334" width="45" height="45" rx="22.5" fill="black"/>
<path d="M487.398 358.288C487.47 357.698 487.523 357.108 487.523 356.5C487.523 355.892 487.47 355.302 487.398 354.712H490.42C490.563 355.284 490.653 355.883 490.653 356.5C490.653 357.117 490.563 357.716 490.42 358.288M485.816 363.259C486.352 362.267 486.763 361.194 487.05 360.076H489.687C488.821 361.568 487.447 362.698 485.816 363.259ZM485.592 358.288H481.408C481.319 357.698 481.265 357.108 481.265 356.5C481.265 355.892 481.319 355.293 481.408 354.712H485.592C485.673 355.293 485.735 355.892 485.735 356.5C485.735 357.108 485.673 357.698 485.592 358.288ZM483.5 363.617C482.758 362.544 482.159 361.355 481.792 360.076H485.208C484.841 361.355 484.242 362.544 483.5 363.617ZM479.924 352.924H477.313C478.171 351.428 479.544 350.297 481.176 349.741C480.639 350.733 480.237 351.806 479.924 352.924ZM477.313 360.076H479.924C480.237 361.194 480.639 362.267 481.176 363.259C479.547 362.697 478.176 361.567 477.313 360.076ZM476.58 358.288C476.437 357.716 476.348 357.117 476.348 356.5C476.348 355.883 476.437 355.284 476.58 354.712H479.602C479.531 355.302 479.477 355.892 479.477 356.5C479.477 357.108 479.531 357.698 479.602 358.288M483.5 349.375C484.242 350.447 484.841 351.645 485.208 352.924H481.792C482.159 351.645 482.758 350.447 483.5 349.375ZM489.687 352.924H487.05C486.77 351.817 486.355 350.748 485.816 349.741C487.461 350.304 488.829 351.44 489.687 352.924ZM483.5 347.56C478.556 347.56 474.56 351.583 474.56 356.5C474.56 358.871 475.502 361.145 477.178 362.822C478.008 363.652 478.994 364.311 480.079 364.76C481.163 365.209 482.326 365.441 483.5 365.441C485.871 365.441 488.145 364.499 489.822 362.822C491.499 361.145 492.441 358.871 492.441 356.5C492.441 355.326 492.209 354.163 491.76 353.079C491.311 351.994 490.652 351.008 489.822 350.178C488.992 349.348 488.006 348.689 486.922 348.24C485.837 347.791 484.674 347.56 483.5 347.56Z" fill="#E0CCFA"/>
<rect x="454" y="132" width="141" height="94" rx="4.83654" fill="black"/>
<rect x="509.719" y="152.18" width="29.8213" height="29.8213" rx="14.9106" fill="#FFF8E2"/>
<g clip-path="url(#clip2_3209_30398)">
<path d="M530.14 171.376V171.988H519.12V171.376L520.345 170.151V166.478C520.345 164.581 521.587 162.909 523.406 162.371V162.193C523.406 161.868 523.535 161.557 523.764 161.327C523.994 161.098 524.305 160.969 524.63 160.969C524.955 160.969 525.266 161.098 525.496 161.327C525.725 161.557 525.854 161.868 525.854 162.193V162.371C527.672 162.909 528.915 164.581 528.915 166.478V170.151L530.14 171.376ZM525.854 172.6C525.854 172.925 525.725 173.236 525.496 173.466C525.266 173.695 524.955 173.824 524.63 173.824C524.305 173.824 523.994 173.695 523.764 173.466C523.535 173.236 523.406 172.925 523.406 172.6M529.374 161.697L528.505 162.567C529.023 163.078 529.434 163.687 529.714 164.359C529.995 165.03 530.139 165.751 530.14 166.478H531.364C531.364 164.685 530.654 162.958 529.374 161.697ZM517.896 166.478H519.12C519.12 165.009 519.708 163.601 520.755 162.567L519.886 161.697C519.254 162.323 518.752 163.067 518.411 163.888C518.069 164.709 517.894 165.589 517.896 166.478Z" fill="#F3AD3C"/>
</g>
<path d="M480.589 194.728V202.001H479.488V195.829H479.445L477.705 196.965V195.914L479.52 194.728H480.589ZM483.27 201.099C483.076 201.099 482.909 201.03 482.769 200.893C482.629 200.753 482.56 200.585 482.56 200.389C482.56 200.195 482.629 200.029 482.769 199.892C482.909 199.752 483.076 199.682 483.27 199.682C483.464 199.682 483.631 199.752 483.771 199.892C483.91 200.029 483.98 200.195 483.98 200.389C483.98 200.519 483.947 200.639 483.881 200.747C483.817 200.854 483.731 200.939 483.625 201.003C483.518 201.067 483.4 201.099 483.27 201.099ZM483.27 197.456C483.076 197.456 482.909 197.387 482.769 197.25C482.629 197.11 482.56 196.942 482.56 196.745C482.56 196.551 482.629 196.385 482.769 196.248C482.909 196.108 483.076 196.039 483.27 196.039C483.464 196.039 483.631 196.108 483.771 196.248C483.91 196.385 483.98 196.551 483.98 196.745C483.98 196.876 483.947 196.995 483.881 197.104C483.817 197.21 483.731 197.296 483.625 197.36C483.518 197.424 483.4 197.456 483.27 197.456ZM487.92 202.122C487.359 202.119 486.88 201.971 486.482 201.678C486.084 201.384 485.78 200.957 485.569 200.396C485.358 199.835 485.253 199.159 485.253 198.368C485.253 197.58 485.358 196.906 485.569 196.348C485.782 195.789 486.088 195.363 486.485 195.069C486.885 194.776 487.364 194.629 487.92 194.629C488.476 194.629 488.953 194.777 489.351 195.073C489.749 195.366 490.053 195.792 490.264 196.351C490.477 196.907 490.583 197.58 490.583 198.368C490.583 199.161 490.478 199.838 490.267 200.399C490.057 200.958 489.752 201.385 489.355 201.681C488.957 201.975 488.479 202.122 487.92 202.122ZM487.92 201.174C488.412 201.174 488.797 200.933 489.074 200.453C489.353 199.972 489.493 199.277 489.493 198.368C489.493 197.764 489.429 197.254 489.301 196.838C489.176 196.419 488.995 196.101 488.758 195.886C488.524 195.668 488.244 195.559 487.92 195.559C487.43 195.559 487.045 195.801 486.766 196.284C486.487 196.767 486.346 197.461 486.343 198.368C486.343 198.974 486.406 199.487 486.532 199.906C486.659 200.322 486.84 200.639 487.075 200.854C487.309 201.067 487.591 201.174 487.92 201.174ZM494.375 202.122C493.814 202.119 493.335 201.971 492.937 201.678C492.539 201.384 492.235 200.957 492.024 200.396C491.814 199.835 491.708 199.159 491.708 198.368C491.708 197.58 491.814 196.906 492.024 196.348C492.237 195.789 492.543 195.363 492.94 195.069C493.341 194.776 493.819 194.629 494.375 194.629C494.931 194.629 495.408 194.777 495.806 195.073C496.204 195.366 496.508 195.792 496.719 196.351C496.932 196.907 497.038 197.58 497.038 198.368C497.038 199.161 496.933 199.838 496.722 200.399C496.512 200.958 496.207 201.385 495.81 201.681C495.412 201.975 494.934 202.122 494.375 202.122ZM494.375 201.174C494.868 201.174 495.252 200.933 495.529 200.453C495.809 199.972 495.948 199.277 495.948 198.368C495.948 197.764 495.884 197.254 495.756 196.838C495.631 196.419 495.45 196.101 495.213 195.886C494.979 195.668 494.699 195.559 494.375 195.559C493.885 195.559 493.5 195.801 493.221 196.284C492.942 196.767 492.801 197.461 492.798 198.368C492.798 198.974 492.861 199.487 492.987 199.906C493.114 200.322 493.296 200.639 493.53 200.854C493.764 201.067 494.046 201.174 494.375 201.174ZM498.312 202.001V196.546H499.332V197.434H499.399C499.513 197.134 499.699 196.899 499.957 196.731C500.215 196.561 500.524 196.475 500.883 196.475C501.248 196.475 501.553 196.561 501.8 196.731C502.048 196.902 502.232 197.136 502.35 197.434H502.407C502.537 197.143 502.744 196.911 503.028 196.738C503.312 196.563 503.651 196.475 504.044 196.475C504.539 196.475 504.942 196.63 505.255 196.941C505.57 197.251 505.727 197.718 505.727 198.343V202.001H504.665V198.443C504.665 198.073 504.565 197.806 504.364 197.64C504.162 197.474 503.922 197.392 503.643 197.392C503.297 197.392 503.028 197.498 502.837 197.711C502.645 197.922 502.549 198.193 502.549 198.524V202.001H501.491V198.375C501.491 198.079 501.398 197.841 501.214 197.661C501.029 197.482 500.789 197.392 500.493 197.392C500.292 197.392 500.106 197.445 499.935 197.551C499.767 197.656 499.631 197.801 499.527 197.988C499.425 198.175 499.374 198.392 499.374 198.638V202.001H498.312ZM507.15 202.001V196.546H508.212V202.001H507.15ZM507.687 195.705C507.502 195.705 507.343 195.643 507.211 195.52C507.08 195.395 507.015 195.246 507.015 195.073C507.015 194.898 507.08 194.748 507.211 194.625C507.343 194.5 507.502 194.437 507.687 194.437C507.871 194.437 508.029 194.5 508.159 194.625C508.291 194.748 508.358 194.898 508.358 195.073C508.358 195.246 508.291 195.395 508.159 195.52C508.029 195.643 507.871 195.705 507.687 195.705ZM510.702 198.762V202.001H509.641V196.546H510.66V197.434H510.727C510.853 197.145 511.049 196.913 511.317 196.738C511.587 196.563 511.926 196.475 512.336 196.475C512.708 196.475 513.033 196.554 513.312 196.71C513.592 196.864 513.808 197.093 513.962 197.399C514.116 197.704 514.193 198.082 514.193 198.532V202.001H513.131V198.659C513.131 198.264 513.028 197.955 512.822 197.733C512.616 197.508 512.333 197.395 511.974 197.395C511.727 197.395 511.508 197.448 511.317 197.555C511.127 197.661 510.977 197.818 510.866 198.024C510.757 198.227 510.702 198.474 510.702 198.762ZM519.704 197.878L518.742 198.049C518.702 197.925 518.638 197.808 518.55 197.697C518.465 197.586 518.349 197.495 518.202 197.424C518.056 197.353 517.872 197.317 517.652 197.317C517.351 197.317 517.1 197.384 516.899 197.519C516.698 197.652 516.597 197.824 516.597 198.034C516.597 198.217 516.665 198.363 516.8 198.475C516.935 198.586 517.152 198.677 517.453 198.748L518.32 198.947C518.821 199.063 519.195 199.242 519.442 199.483C519.688 199.725 519.811 200.038 519.811 200.424C519.811 200.751 519.716 201.042 519.527 201.298C519.34 201.551 519.078 201.75 518.742 201.894C518.408 202.039 518.021 202.111 517.581 202.111C516.97 202.111 516.472 201.981 516.086 201.72C515.7 201.458 515.463 201.085 515.376 200.602L516.402 200.446C516.466 200.713 516.597 200.916 516.796 201.053C516.995 201.188 517.254 201.255 517.574 201.255C517.922 201.255 518.2 201.183 518.408 201.039C518.617 200.892 518.721 200.713 518.721 200.502C518.721 200.332 518.657 200.189 518.529 200.073C518.404 199.957 518.211 199.869 517.95 199.81L517.027 199.608C516.518 199.492 516.141 199.307 515.898 199.054C515.656 198.8 515.535 198.479 515.535 198.091C515.535 197.769 515.625 197.487 515.805 197.246C515.985 197.005 516.234 196.816 516.551 196.681C516.868 196.544 517.232 196.475 517.641 196.475C518.231 196.475 518.695 196.603 519.033 196.859C519.372 197.112 519.596 197.452 519.704 197.878ZM526.171 196.546V197.399H523.192V196.546H526.171ZM523.991 195.24H525.052V200.399C525.052 200.605 525.083 200.76 525.145 200.865C525.206 200.966 525.286 201.036 525.383 201.074C525.482 201.11 525.59 201.127 525.706 201.127C525.791 201.127 525.866 201.121 525.93 201.11C525.994 201.098 526.043 201.088 526.079 201.081L526.271 201.958C526.209 201.982 526.121 202.006 526.008 202.029C525.894 202.055 525.752 202.07 525.582 202.072C525.302 202.077 525.042 202.027 524.8 201.923C524.559 201.819 524.364 201.658 524.214 201.44C524.065 201.222 523.991 200.949 523.991 200.62V195.24ZM529.585 202.111C529.073 202.111 528.627 201.994 528.246 201.759C527.865 201.525 527.569 201.197 527.358 200.776C527.147 200.354 527.042 199.862 527.042 199.299C527.042 198.733 527.147 198.238 527.358 197.814C527.569 197.39 527.865 197.061 528.246 196.827C528.627 196.593 529.073 196.475 529.585 196.475C530.096 196.475 530.542 196.593 530.923 196.827C531.305 197.061 531.6 197.39 531.811 197.814C532.022 198.238 532.127 198.733 532.127 199.299C532.127 199.862 532.022 200.354 531.811 200.776C531.6 201.197 531.305 201.525 530.923 201.759C530.542 201.994 530.096 202.111 529.585 202.111ZM529.588 201.22C529.92 201.22 530.194 201.132 530.412 200.957C530.63 200.782 530.791 200.549 530.895 200.257C531.002 199.966 531.055 199.645 531.055 199.295C531.055 198.947 531.002 198.627 530.895 198.336C530.791 198.043 530.63 197.807 530.412 197.63C530.194 197.452 529.92 197.363 529.588 197.363C529.254 197.363 528.977 197.452 528.757 197.63C528.539 197.807 528.377 198.043 528.271 198.336C528.167 198.627 528.114 198.947 528.114 199.295C528.114 199.645 528.167 199.966 528.271 200.257C528.377 200.549 528.539 200.782 528.757 200.957C528.977 201.132 529.254 201.22 529.588 201.22ZM540.046 197.878L539.084 198.049C539.044 197.925 538.98 197.808 538.892 197.697C538.807 197.586 538.691 197.495 538.544 197.424C538.397 197.353 538.214 197.317 537.994 197.317C537.693 197.317 537.442 197.384 537.241 197.519C537.04 197.652 536.939 197.824 536.939 198.034C536.939 198.217 537.006 198.363 537.141 198.475C537.276 198.586 537.494 198.677 537.795 198.748L538.661 198.947C539.163 199.063 539.537 199.242 539.783 199.483C540.03 199.725 540.153 200.038 540.153 200.424C540.153 200.751 540.058 201.042 539.869 201.298C539.682 201.551 539.42 201.75 539.084 201.894C538.75 202.039 538.363 202.111 537.923 202.111C537.312 202.111 536.814 201.981 536.428 201.72C536.042 201.458 535.805 201.085 535.717 200.602L536.744 200.446C536.808 200.713 536.939 200.916 537.138 201.053C537.337 201.188 537.596 201.255 537.916 201.255C538.264 201.255 538.542 201.183 538.75 201.039C538.958 200.892 539.063 200.713 539.063 200.502C539.063 200.332 538.999 200.189 538.871 200.073C538.745 199.957 538.552 199.869 538.292 199.81L537.369 199.608C536.86 199.492 536.483 199.307 536.239 199.054C535.998 198.8 535.877 198.479 535.877 198.091C535.877 197.769 535.967 197.487 536.147 197.246C536.327 197.005 536.576 196.816 536.893 196.681C537.21 196.544 537.573 196.475 537.983 196.475C538.573 196.475 539.037 196.603 539.375 196.859C539.714 197.112 539.937 197.452 540.046 197.878ZM543.671 202.111C543.134 202.111 542.671 201.996 542.283 201.767C541.897 201.535 541.598 201.209 541.388 200.79C541.179 200.369 541.075 199.875 541.075 199.309C541.075 198.751 541.179 198.258 541.388 197.832C541.598 197.406 541.892 197.073 542.268 196.834C542.647 196.595 543.09 196.475 543.597 196.475C543.904 196.475 544.203 196.526 544.491 196.628C544.78 196.73 545.039 196.89 545.269 197.108C545.499 197.325 545.68 197.608 545.812 197.956C545.945 198.302 546.011 198.722 546.011 199.217V199.593H541.675V198.798H544.971C544.971 198.518 544.914 198.271 544.8 198.056C544.687 197.838 544.527 197.666 544.321 197.541C544.117 197.415 543.878 197.353 543.604 197.353C543.305 197.353 543.045 197.426 542.822 197.573C542.602 197.717 542.432 197.907 542.311 198.141C542.193 198.373 542.133 198.625 542.133 198.897V199.519C542.133 199.883 542.197 200.193 542.325 200.449C542.455 200.705 542.637 200.9 542.869 201.035C543.101 201.168 543.372 201.234 543.682 201.234C543.883 201.234 544.066 201.206 544.232 201.149C544.398 201.09 544.541 201.002 544.662 200.886C544.783 200.77 544.875 200.627 544.939 200.456L545.944 200.637C545.863 200.933 545.719 201.193 545.511 201.415C545.305 201.635 545.045 201.807 544.733 201.93C544.423 202.051 544.069 202.111 543.671 202.111ZM551.277 197.878L550.314 198.049C550.274 197.925 550.21 197.808 550.123 197.697C550.037 197.586 549.921 197.495 549.775 197.424C549.628 197.353 549.444 197.317 549.224 197.317C548.924 197.317 548.673 197.384 548.471 197.519C548.27 197.652 548.169 197.824 548.169 198.034C548.169 198.217 548.237 198.363 548.372 198.475C548.507 198.586 548.725 198.677 549.025 198.748L549.892 198.947C550.394 199.063 550.768 199.242 551.014 199.483C551.26 199.725 551.383 200.038 551.383 200.424C551.383 200.751 551.289 201.042 551.099 201.298C550.912 201.551 550.651 201.75 550.314 201.894C549.981 202.039 549.593 202.111 549.153 202.111C548.542 202.111 548.044 201.981 547.658 201.72C547.272 201.458 547.035 201.085 546.948 200.602L547.974 200.446C548.038 200.713 548.169 200.916 548.368 201.053C548.567 201.188 548.826 201.255 549.146 201.255C549.494 201.255 549.772 201.183 549.981 201.039C550.189 200.892 550.293 200.713 550.293 200.502C550.293 200.332 550.229 200.189 550.101 200.073C549.976 199.957 549.783 199.869 549.522 199.81L548.599 199.608C548.09 199.492 547.714 199.307 547.47 199.054C547.228 198.8 547.108 198.479 547.108 198.091C547.108 197.769 547.198 197.487 547.378 197.246C547.557 197.005 547.806 196.816 548.123 196.681C548.441 196.544 548.804 196.475 549.214 196.475C549.803 196.475 550.267 196.603 550.606 196.859C550.944 197.112 551.168 197.452 551.277 197.878ZM556.638 197.878L555.676 198.049C555.635 197.925 555.572 197.808 555.484 197.697C555.399 197.586 555.283 197.495 555.136 197.424C554.989 197.353 554.806 197.317 554.585 197.317C554.285 197.317 554.034 197.384 553.833 197.519C553.631 197.652 553.531 197.824 553.531 198.034C553.531 198.217 553.598 198.363 553.733 198.475C553.868 198.586 554.086 198.677 554.387 198.748L555.253 198.947C555.755 199.063 556.129 199.242 556.375 199.483C556.621 199.725 556.745 200.038 556.745 200.424C556.745 200.751 556.65 201.042 556.46 201.298C556.273 201.551 556.012 201.75 555.676 201.894C555.342 202.039 554.955 202.111 554.514 202.111C553.904 202.111 553.405 201.981 553.019 201.72C552.634 201.458 552.397 201.085 552.309 200.602L553.335 200.446C553.399 200.713 553.531 200.916 553.73 201.053C553.929 201.188 554.188 201.255 554.507 201.255C554.855 201.255 555.134 201.183 555.342 201.039C555.55 200.892 555.654 200.713 555.654 200.502C555.654 200.332 555.59 200.189 555.463 200.073C555.337 199.957 555.144 199.869 554.884 199.81L553.96 199.608C553.451 199.492 553.075 199.307 552.831 199.054C552.59 198.8 552.469 198.479 552.469 198.091C552.469 197.769 552.559 197.487 552.739 197.246C552.919 197.005 553.167 196.816 553.485 196.681C553.802 196.544 554.165 196.475 554.575 196.475C555.164 196.475 555.628 196.603 555.967 196.859C556.305 197.112 556.529 197.452 556.638 197.878ZM557.912 202.001V196.546H558.974V202.001H557.912ZM558.448 195.705C558.264 195.705 558.105 195.643 557.972 195.52C557.842 195.395 557.777 195.246 557.777 195.073C557.777 194.898 557.842 194.748 557.972 194.625C558.105 194.5 558.264 194.437 558.448 194.437C558.633 194.437 558.79 194.5 558.921 194.625C559.053 194.748 559.119 194.898 559.119 195.073C559.119 195.246 559.053 195.395 558.921 195.52C558.79 195.643 558.633 195.705 558.448 195.705ZM562.7 202.111C562.188 202.111 561.742 201.994 561.361 201.759C560.98 201.525 560.684 201.197 560.473 200.776C560.263 200.354 560.157 199.862 560.157 199.299C560.157 198.733 560.263 198.238 560.473 197.814C560.684 197.39 560.98 197.061 561.361 196.827C561.742 196.593 562.188 196.475 562.7 196.475C563.211 196.475 563.657 196.593 564.039 196.827C564.42 197.061 564.716 197.39 564.926 197.814C565.137 198.238 565.242 198.733 565.242 199.299C565.242 199.862 565.137 200.354 564.926 200.776C564.716 201.197 564.42 201.525 564.039 201.759C563.657 201.994 563.211 202.111 562.7 202.111ZM562.703 201.22C563.035 201.22 563.309 201.132 563.527 200.957C563.745 200.782 563.906 200.549 564.01 200.257C564.117 199.966 564.17 199.645 564.17 199.295C564.17 198.947 564.117 198.627 564.01 198.336C563.906 198.043 563.745 197.807 563.527 197.63C563.309 197.452 563.035 197.363 562.703 197.363C562.37 197.363 562.093 197.452 561.872 197.63C561.655 197.807 561.492 198.043 561.386 198.336C561.282 198.627 561.23 198.947 561.23 199.295C561.23 199.645 561.282 199.966 561.386 200.257C561.492 200.549 561.655 200.782 561.872 200.957C562.093 201.132 562.37 201.22 562.703 201.22ZM567.489 198.762V202.001H566.428V196.546H567.447V197.434H567.514C567.64 197.145 567.836 196.913 568.104 196.738C568.374 196.563 568.713 196.475 569.123 196.475C569.495 196.475 569.82 196.554 570.1 196.71C570.379 196.864 570.595 197.093 570.749 197.399C570.903 197.704 570.98 198.082 570.98 198.532V202.001H569.918V198.659C569.918 198.264 569.815 197.955 569.609 197.733C569.403 197.508 569.121 197.395 568.761 197.395C568.515 197.395 568.296 197.448 568.104 197.555C567.914 197.661 567.764 197.818 567.653 198.024C567.544 198.227 567.489 198.474 567.489 198.762Z" fill="#F7F3E9"/>
<rect x="16" y="281" width="95" height="33" rx="3.44682" fill="black"/>
<g opacity="0.71">
<line x1="39" y1="290.715" x2="94" y2="290.715" stroke="#AECAF1" stroke-width="2.66129"/>
<line x1="39" y1="296.715" x2="81.5806" y2="296.715" stroke="#AECAF1" stroke-width="2.66129"/>
<line x1="39" y1="302.715" x2="62.9516" y2="302.715" stroke="#AECAF1" stroke-width="2.66129"/>
</g>
<path d="M18.9989 260.75C22.2481 260.75 25.3641 262.041 27.6616 264.338C29.9591 266.636 31.2498 269.752 31.2498 273.001C31.2498 276.25 29.9591 279.366 27.6616 281.664C25.3641 283.961 22.2481 285.252 18.9989 285.252C15.7498 285.252 12.6337 283.961 10.3362 281.664C8.03876 279.366 6.74805 276.25 6.74805 273.001C6.74805 269.752 8.03876 266.636 10.3362 264.338C12.6337 262.041 15.7498 260.75 18.9989 260.75ZM20.8364 268.272C21.7464 268.272 22.4849 267.64 22.4849 266.704C22.4849 265.767 21.7447 265.136 20.8364 265.136C19.9264 265.136 19.1914 265.767 19.1914 266.704C19.1914 267.64 19.9264 268.272 20.8364 268.272ZM21.1567 278.119C21.1567 277.932 21.2214 277.445 21.1847 277.169L19.7462 278.824C19.4487 279.137 19.0759 279.354 18.9009 279.297C18.8215 279.267 18.7552 279.211 18.7138 279.137C18.6724 279.063 18.6587 278.977 18.6752 278.894L21.0727 271.32C21.2687 270.359 20.7297 269.483 19.5869 269.371C18.3812 269.371 16.6067 270.594 15.5269 272.146C15.5269 272.332 15.4919 272.794 15.5287 273.07L16.9654 271.413C17.2629 271.103 17.6094 270.884 17.7844 270.944C17.8706 270.975 17.9413 271.038 17.9812 271.121C18.0211 271.203 18.0271 271.298 17.9979 271.385L15.6214 278.922C15.3467 279.804 15.8664 280.669 17.1264 280.865C18.9814 280.865 20.0769 279.671 21.1584 278.119H21.1567Z" fill="#528BDC"/>
<defs>
<linearGradient id="paint0_linear_3209_30398" x1="333.607" y1="55.708" x2="333.607" y2="83.0436" gradientUnits="userSpaceOnUse">
<stop stop-color="#F6EB94"/>
<stop offset="1" stop-color="#F6EB94" stop-opacity="0"/>
</linearGradient>
<clipPath id="clip0_3209_30398">
<rect x="396.076" y="160.498" width="41.4037" height="41.4037" rx="20.7019" fill="white"/>
</clipPath>
<clipPath id="clip1_3209_30398">
<rect x="171.826" y="188.183" width="41.4037" height="41.4037" rx="20.7019" fill="white"/>
</clipPath>
<clipPath id="clip2_3209_30398">
<rect width="14.6922" height="14.6922" fill="white" transform="translate(517.284 159.744)"/>
</clipPath>
</defs>
</svg>
